<svg width="97" height="250" viewBox="0 0 97 250" fill="none" xmlns="http://www.w3.org/2000/svg">
<path opacity="0.5" d="M59.6602 96.0508L59.6602 80.6875L18 80.6875L18 68.3477L59.6602 68.3477L59.6602 53.2656L69.1875 53.2656L69.1875 96.0508L59.6602 96.0508ZM39.6914 133.035L39.6914 113.629L27.4922 113.629L27.4922 136.551L18 136.551L18 101.289L69.1875 101.289L69.1875 136.621L59.6602 136.621L59.6602 113.629L48.8672 113.629L48.8672 133.035L39.6914 133.035ZM27.5625 170.652L27.5625 153.742L18 150.789L18 137.605L69.1875 156.379L69.1875 167.98L18 186.895L18 173.641L27.5625 170.652ZM37.0898 156.695L37.0898 167.699L54.8437 162.18L37.0898 156.695ZM69.1875 206.863L33.5742 218.289L69.1875 229.68L69.1875 245.922L18 245.922L18 233.547L29.9531 233.547L54.4219 234.742L18 222.367L18 214.211L54.457 201.801L29.9531 202.996L18 202.996L18 190.656L69.1875 190.656L69.1875 206.863Z" fill="#84A2AC" fill-opacity="0.6"/>
<path d="M80.4297 92.7344L80.4297 82.2812L52 82.2812L52 75.25L80.4297 75.25L80.4297 64.9375L86.125 64.9375L86.125 92.7344L80.4297 92.7344ZM66.7891 117.297L66.7891 103.797L57.6484 103.797L57.6484 119.641L52 119.641L52 96.7656L86.125 96.7656L86.125 119.594L80.4297 119.594L80.4297 103.797L72.2969 103.797L72.2969 117.297L66.7891 117.297ZM59.0312 143.031L59.0312 130.703L52 128.359L52 120.883L86.125 133.586L86.125 140.102L52 152.875L52 145.398L59.0312 143.031ZM64.7266 132.602L64.7266 141.133L77.5 136.844L64.7266 132.602ZM86.125 165.25L61.375 174.016L86.125 182.734L86.125 191.969L52 191.969L52 184.914L61.3281 184.914L77.4297 185.617L52 176.406L52 171.578L77.4062 162.391L61.3281 163.094L52 163.094L52 156.062L86.125 156.062L86.125 165.25Z" fill="#26414A"/>
<line x1="52" y1="1.5" x2="88" y2="1.5" stroke="#26414A" stroke-width="3"/>
</svg>
