<svg width="97" height="254" viewBox="0 0 97 254" fill="none" xmlns="http://www.w3.org/2000/svg">
<path opacity="0.5" d="M18 101.617L18 89.3477L49.8516 71.207L18 71.207L18 58.8672L69.1875 58.8672L69.1875 71.207L37.3359 89.3125L69.1875 89.3125L69.1875 101.617L18 101.617ZM39.6914 141.168L39.6914 121.762L27.4922 121.762L27.4922 144.684L18 144.684L18 109.422L69.1875 109.422L69.1875 144.754L59.6602 144.754L59.6602 121.762L48.8672 121.762L48.8672 141.168L39.6914 141.168ZM37.0898 189.367L69.1875 195.238L69.1875 207.473L18 196.609L18 183.812L47.1797 176.957L18 170.242L18 157.48L69.1875 146.582L69.1875 158.852L37.0898 164.723L69.1875 171.754L69.1875 182.23L37.0898 189.367ZM31.6055 238.691C33.4101 238.691 34.8164 238.047 35.8242 236.758C36.832 235.492 37.875 233.254 38.9531 230.043C40.0312 226.832 41.0742 224.207 42.082 222.168C45.3398 215.535 49.8164 212.219 55.5117 212.219C58.3476 212.219 60.8437 213.039 63 214.68C65.1797 216.344 66.8672 218.687 68.0625 221.711C69.2812 224.734 69.8906 228.133 69.8906 231.906C69.8906 235.586 69.2344 238.879 67.9219 241.785C66.6094 244.715 64.7344 246.988 62.2969 248.605C59.8828 250.223 57.1172 251.031 54 251.031L54 238.727C56.0859 238.727 57.7031 238.082 58.8516 236.793C60 235.527 60.5742 233.805 60.5742 231.625C60.5742 229.422 60.082 227.676 59.0976 226.387C58.1367 225.121 56.9062 224.488 55.4062 224.488C54.0937 224.488 52.8984 225.191 51.8203 226.598C50.7656 228.004 49.6641 230.477 48.5156 234.016C47.3906 237.555 46.1719 240.461 44.8594 242.734C41.6719 248.266 37.2773 251.031 31.6758 251.031C27.1992 251.031 23.6836 249.344 21.1289 245.969C18.5742 242.594 17.2969 237.965 17.2969 232.082C17.2969 227.934 18.0351 224.172 19.5117 220.797C21.0117 217.445 23.0508 214.914 25.6289 213.203C28.2305 211.516 31.2187 210.672 34.5937 210.672L34.5937 223.047C31.8516 223.047 29.8242 223.75 28.5117 225.156C27.2226 226.586 26.5781 228.895 26.5781 232.082C26.5781 234.121 27.0117 235.727 27.8789 236.898C28.7695 238.094 30.0117 238.691 31.6055 238.691Z" fill="#84A2AC" fill-opacity="0.6"/>
<path d="M52 97.7969L52 90.7656L74.4531 77.0781L52 77.0781L52 70.0469L86.125 70.0469L86.125 77.0781L63.625 90.7891L86.125 90.7891L86.125 97.7969L52 97.7969ZM66.7891 124.469L66.7891 110.969L57.6484 110.969L57.6484 126.812L52 126.812L52 103.937L86.125 103.937L86.125 126.766L80.4297 126.766L80.4297 110.969L72.2969 110.969L72.2969 124.469L66.7891 124.469ZM61.8437 157.516L86.125 162.109L86.125 169.117L52 161.547L52 154.469L74.8281 148.914L52 143.359L52 136.281L86.125 128.711L86.125 135.719L61.8906 140.336L86.125 145.961L86.125 151.914L61.8437 157.516ZM60.9531 190.633C62.2812 190.633 63.2969 190.164 64 189.227C64.7187 188.289 65.4687 186.602 66.25 184.164C67.0469 181.727 67.8281 179.797 68.5937 178.375C70.6875 174.5 73.5078 172.562 77.0547 172.562C78.8984 172.562 80.5391 173.078 81.9766 174.109C83.4297 175.156 84.5625 176.648 85.375 178.586C86.1875 180.539 86.5937 182.727 86.5937 185.148C86.5937 187.586 86.1484 189.758 85.2578 191.664C84.3828 193.57 83.1406 195.047 81.5312 196.094C79.9219 197.156 78.0937 197.687 76.0469 197.687L76.0469 190.656C77.6094 190.656 78.8203 190.164 79.6797 189.18C80.5547 188.195 80.9922 186.812 80.9922 185.031C80.9922 183.312 80.625 181.977 79.8906 181.023C79.1719 180.07 78.2187 179.594 77.0312 179.594C75.9219 179.594 74.9922 180.148 74.2422 181.258C73.4922 182.383 72.7891 184.031 72.1328 186.203C70.9297 190.203 69.4375 193.117 67.6562 194.945C65.875 196.773 63.6562 197.687 61 197.687C58.0469 197.687 55.7266 196.57 54.0391 194.336C52.3672 192.102 51.5312 189.094 51.5312 185.312C51.5312 182.687 52.0078 180.297 52.9609 178.141C53.9297 175.984 55.25 174.336 56.9219 173.195C58.5937 172.07 60.5312 171.508 62.7344 171.508L62.7344 178.562C58.9687 178.562 57.0859 180.812 57.0859 185.312C57.0859 186.984 57.4219 188.289 58.0937 189.227C58.7812 190.164 59.7344 190.633 60.9531 190.633Z" fill="#26414A"/>
<line x1="52" y1="1.5" x2="88" y2="1.5" stroke="#26414A" stroke-width="3"/>
</svg>
