<svg width="97" height="297" viewBox="0 0 97 297" fill="none" xmlns="http://www.w3.org/2000/svg">
<path opacity="0.5" d="M27.5625 90.9414L27.5625 74.0312L18 71.0781L18 57.8945L69.1875 76.668L69.1875 88.2695L18 107.184L18 93.9297L27.5625 90.9414ZM37.0899 76.9844L37.0899 87.9883L54.8438 82.4687L37.0899 76.9844ZM18 110.945L69.1875 110.945L69.1875 129.332C69.1875 135.918 67.9805 140.922 65.5664 144.344C63.1524 147.789 59.6484 149.512 55.0547 149.512C52.4063 149.512 50.1445 148.902 48.2695 147.684C46.3945 146.465 45.0117 144.672 44.1211 142.305C43.418 144.977 42.1055 147.027 40.1836 148.457C38.2617 149.887 35.918 150.602 33.1524 150.602C28.1367 150.602 24.3633 149.008 21.832 145.82C19.3242 142.656 18.0469 137.957 18 131.723L18 110.945ZM39.7617 123.285L27.4922 123.285L27.4922 131.371C27.4922 133.598 27.9961 135.309 29.0039 136.504C30.0352 137.699 31.4766 138.297 33.3281 138.297C37.5938 138.297 39.7383 136.176 39.7617 131.934L39.7617 123.285ZM47.8477 123.285L47.8477 129.719C47.8711 132.414 48.3633 134.336 49.3242 135.484C50.2852 136.633 51.7031 137.207 53.5781 137.207C55.7344 137.207 57.2813 136.586 58.2188 135.344C59.1797 134.102 59.6602 132.098 59.6602 129.332L59.6602 123.285L47.8477 123.285ZM42.5391 200.77C37.5469 200.77 33.1289 199.844 29.2852 197.992C25.4414 196.141 22.4766 193.504 20.3906 190.082C18.3281 186.684 17.2969 182.805 17.2969 178.445C17.2969 174.086 18.293 170.219 20.2852 166.844C22.3008 163.469 25.1719 160.832 28.8984 158.934C32.625 157.059 36.9024 156.074 41.7305 155.98L44.6133 155.98C49.6289 155.98 54.0469 156.895 57.8672 158.723C61.7109 160.574 64.6758 163.211 66.7617 166.633C68.8477 170.078 69.8906 173.992 69.8906 178.375C69.8906 182.711 68.8594 186.578 66.7969 189.977C64.7344 193.375 61.793 196.012 57.9727 197.887C54.1758 199.785 49.8164 200.746 44.8945 200.77L42.5391 200.77ZM44.6836 188.219C49.7695 188.219 53.625 187.363 56.25 185.652C58.8984 183.965 60.2227 181.539 60.2227 178.375C60.2227 172.187 55.582 168.918 46.3008 168.566L42.5391 168.531C37.5234 168.531 33.668 169.363 30.9727 171.027C28.2774 172.691 26.9297 175.164 26.9297 178.445C26.9297 181.562 28.2539 183.965 30.9024 185.652C33.5508 187.34 37.3594 188.195 42.3281 188.219L44.6836 188.219ZM69.1875 247.281L35.6836 247.281C31.8867 247.281 28.5938 246.473 25.8047 244.855C23.0391 243.238 20.9297 240.918 19.4766 237.895C18.0234 234.871 17.2969 231.297 17.2969 227.172C17.2969 220.937 18.9141 216.027 22.1484 212.441C25.3828 208.855 29.8125 207.027 35.4375 206.957L69.1875 206.957L69.1875 219.367L35.1914 219.367C29.5899 219.508 26.7891 222.109 26.7891 227.172C26.7891 229.727 27.4922 231.66 28.8984 232.973C30.3047 234.285 32.5899 234.941 35.7539 234.941L69.1875 234.941L69.1875 247.281ZM59.6602 295.199L59.6602 279.836L18 279.836L18 267.496L59.6602 267.496L59.6602 252.414L69.1875 252.414L69.1875 295.199L59.6602 295.199Z" fill="#84A2AC" fill-opacity="0.6"/>
<path d="M59.0312 92.3125L59.0312 79.9844L52 77.6406L52 70.1641L86.125 82.8672L86.125 89.3828L52 102.156L52 94.6797L59.0312 92.3125ZM64.7266 81.8828L64.7266 90.4141L77.5 86.125L64.7266 81.8828ZM52 105.344L86.125 105.344L86.125 117.297C86.125 121.437 85.3281 124.578 83.7344 126.719C82.1562 128.859 79.8359 129.93 76.7734 129.93C75.1016 129.93 73.625 129.5 72.3437 128.641C71.0781 127.781 70.1484 126.586 69.5547 125.055C69.1172 126.805 68.2344 128.18 66.9062 129.18C65.5781 130.195 63.9531 130.703 62.0312 130.703C58.75 130.703 56.2656 129.656 54.5781 127.562C52.8906 125.469 52.0312 122.484 52 118.609L52 105.344ZM66.8594 112.375L57.6484 112.375L57.6484 118.398C57.6484 120.055 58.0391 121.344 58.8203 122.266C59.6172 123.203 60.7109 123.672 62.1016 123.672C65.2266 123.672 66.8125 122.055 66.8594 118.82L66.8594 112.375ZM71.8281 112.375L71.8281 117.578C71.8906 121.125 73.3047 122.898 76.0703 122.898C77.6172 122.898 78.7266 122.445 79.3984 121.539C80.0859 120.648 80.4297 119.234 80.4297 117.297L80.4297 112.375L71.8281 112.375ZM68.2891 164.031C64.9297 164.031 61.9844 163.437 59.4531 162.25C56.9219 161.062 54.9687 159.359 53.5937 157.141C52.2187 154.937 51.5312 152.406 51.5312 149.547C51.5312 146.719 52.2109 144.195 53.5703 141.977C54.9297 139.758 56.8672 138.039 59.3828 136.82C61.9141 135.602 64.8203 134.984 68.1016 134.969L69.7891 134.969C73.1484 134.969 76.1016 135.57 78.6484 136.773C81.2109 137.992 83.1719 139.703 84.5312 141.906C85.9062 144.125 86.5937 146.656 86.5937 149.5C86.5937 152.344 85.9062 154.867 84.5312 157.07C83.1719 159.289 81.2109 161 78.6484 162.203C76.1016 163.422 73.1562 164.031 69.8125 164.031L68.2891 164.031ZM69.8359 156.906C73.4141 156.906 76.1328 156.266 77.9922 154.984C79.8516 153.703 80.7812 151.875 80.7812 149.5C80.7812 147.141 79.8594 145.32 78.0156 144.039C76.1875 142.758 73.5 142.109 69.9531 142.094L68.2891 142.094C64.8047 142.094 62.1016 142.734 60.1797 144.016C58.2578 145.297 57.2969 147.141 57.2969 149.547C57.2969 151.906 58.2187 153.719 60.0625 154.984C61.9219 156.25 64.625 156.891 68.1719 156.906L69.8359 156.906ZM86.125 194.969L63.6484 194.969C59.9141 194.969 56.9609 193.797 54.7891 191.453C52.6172 189.125 51.5312 185.937 51.5312 181.891C51.5312 177.906 52.5859 174.742 54.6953 172.398C56.8047 170.055 59.7031 168.859 63.3906 168.812L86.125 168.812L86.125 175.844L63.6016 175.844C61.3672 175.844 59.7344 176.375 58.7031 177.437C57.6875 178.516 57.1797 180 57.1797 181.891C57.1797 185.844 59.2578 187.852 63.4141 187.914L86.125 187.914L86.125 194.969ZM80.4297 226.422L80.4297 215.969L52 215.969L52 208.937L80.4297 208.937L80.4297 198.625L86.125 198.625L86.125 226.422L80.4297 226.422Z" fill="#26414A"/>
<line x1="52" y1="1.5" x2="88" y2="1.5" stroke="#26414A" stroke-width="3"/>
</svg>
